<svg xmlns="http://www.w3.org/2000/svg" viewBox="0 0 500 500"><g id="freepik--background-complete--inject-99"><path d="M92.59,239.56l-13.12.27-6.66.12c-2.23,0-4.47,0-6.7.05h-.44v-.44l-.06-11.19v-.51h.5l13.24.06c4.42,0,8.83.11,13.24.16h.28v.27c0,1.89-.09,3.78-.13,5.65Zm0,0-.14-5.66c0-1.86-.11-3.7-.13-5.53l.27.27c-4.41.05-8.82.16-13.24.16l-13.24.07.5-.5,0,11.19-.45-.45c2.18,0,4.36,0,6.55,0l6.58.12Z" style="fill:#ebebeb"></path><path d="M77.82,253.67l-13.12.27-6.66.12c-2.23,0-4.47,0-6.7.05H50.9v-.44l-.06-11.19V242h.5l13.24.06c4.41,0,8.83.11,13.24.16h.28v.27c0,1.89-.08,3.78-.13,5.65Zm0,0L77.68,248c-.05-1.86-.11-3.7-.13-5.53l.27.27c-4.41.05-8.83.16-13.24.16L51.34,243l.5-.49-.05,11.19-.45-.45c2.18,0,4.36,0,6.55.05l6.58.12Z" style="fill:#ebebeb"></path><path d="M428.58,370.91l-13.12.27-6.66.12c-2.23,0-4.47,0-6.7.05h-.44v-.44l-.06-11.19v-.51h.5l13.24.06c4.42,0,8.83.11,13.24.16h.28v.27c0,1.89-.09,3.78-.14,5.65Zm0,0-.14-5.66c0-1.86-.11-3.7-.13-5.53l.27.27c-4.41.05-8.82.16-13.24.16l-13.24.07.5-.5-.05,11.19-.45-.45c2.18,0,4.36,0,6.55.05l6.58.12Z" style="fill:#ebebeb"></path><path d="M413.81,385l-13.12.27-6.67.12c-2.22,0-4.46,0-6.69,0h-.44V385l-.05-11.19v-.51h.5l13.24.06c4.41,0,8.83.11,13.24.16h.28v.27c0,1.89-.08,3.78-.13,5.65Zm0,0-.14-5.66c-.05-1.86-.11-3.7-.13-5.53l.27.27c-4.41,0-8.83.16-13.24.16l-13.24.07.5-.5L387.78,385l-.45-.45c2.18,0,4.36,0,6.55.05l6.57.12Z" style="fill:#ebebeb"></path><path d="M448.66,253.67l-13.13.27-6.66.12c-2.22,0-4.46,0-6.69.05h-.45v-.44l-.05-11.19V242h.5l13.24.06c4.41,0,8.83.11,13.24.16h.27v.27c0,1.89-.08,3.78-.13,5.65Zm0,0-.14-5.66c0-1.86-.12-3.7-.13-5.53l.27.27c-4.41.05-8.83.16-13.24.16l-13.24.06.5-.49-.06,11.19-.44-.45c2.18,0,4.36,0,6.54.05l6.58.12Z" style="fill:#ebebeb"></path><path d="M433.89,55.2l-13.13.28-6.66.11c-2.22,0-4.46,0-6.69.06H407V55.2l0-11.19v-.5h.51l13.24.06c4.41,0,8.82.12,13.24.17h.27V44c0,1.9-.09,3.79-.13,5.65Zm0,0-.14-5.65c-.05-1.87-.12-3.71-.14-5.54l.28.27c-4.42,0-8.83.16-13.24.17l-13.24.06.5-.5-.06,11.19-.44-.45c2.18,0,4.35,0,6.54.06l6.58.11Z" style="fill:#ebebeb"></path><path d="M448.66,69.31l-13.13.28-6.66.11c-2.22,0-4.46,0-6.69.06h-.45v-.45l-.05-11.19v-.5h.5l13.24.06c4.41,0,8.83.12,13.24.17h.27v.27c0,1.9-.08,3.79-.13,5.65Zm0,0-.14-5.65c0-1.87-.12-3.71-.13-5.54l.27.27c-4.41,0-8.83.16-13.24.17l-13.24.06.5-.5-.06,11.19-.44-.45c2.18,0,4.36,0,6.54.06l6.58.11Z" style="fill:#ebebeb"></path><path d="M92.59,55.2l-13.12.28-6.66.11c-2.23,0-4.47,0-6.7.06h-.44V55.2L65.61,44v-.5h.5l13.24.06c4.42,0,8.83.12,13.24.17h.28V44c0,1.9-.09,3.79-.13,5.65Zm0,0-.14-5.65c0-1.87-.11-3.71-.13-5.54l.27.27c-4.41,0-8.82.16-13.24.17l-13.24.06.5-.5,0,11.19-.45-.45c2.18,0,4.36,0,6.55.06l6.58.11Z" style="fill:#ebebeb"></path><path d="M235.33,178.26l-13.12.27-6.66.12c-2.23,0-4.47,0-6.7,0h-.44v-.44l-.05-11.19v-.51h.5l13.24.06c4.41,0,8.83.11,13.24.16h.28v.27c0,1.89-.08,3.78-.13,5.65Zm0,0-.14-5.66c-.05-1.86-.11-3.7-.13-5.53l.27.27c-4.41,0-8.83.16-13.24.16l-13.24.07.5-.5,0,11.19-.45-.45c2.18,0,4.36,0,6.55.06L222,178Z" style="fill:#ebebeb"></path><rect x="47.44" y="56.21" width="52.36" height="63.51" style="fill:#ebebeb"></rect><rect x="53.43" y="62" width="40.39" height="51.92" style="fill:#fff"></rect><rect x="53.43" y="62" width="1.58" height="51.92" style="fill:#dbdbdb"></rect><rect x="99.8" y="56.21" width="1.58" height="63.51" style="fill:#dbdbdb"></rect><rect x="66.96" y="69.16" width="9.52" height="28.38" style="fill:#dbdbdb"></rect><path d="M88.7,102.88H62.31V88H88.7Zm-25.39-1H87.7V89H63.31Z" style="fill:#ebebeb"></path><rect x="74.41" y="137.53" width="52.36" height="63.51" style="fill:#ebebeb"></rect><rect x="80.39" y="143.33" width="40.39" height="51.92" style="fill:#fff"></rect><rect x="80.39" y="143.33" width="1.58" height="51.92" style="fill:#dbdbdb"></rect><rect x="126.77" y="137.53" width="1.58" height="63.51" style="fill:#dbdbdb"></rect><rect x="96.68" y="156.75" width="8.16" height="20.63" style="fill:#ebebeb"></rect><path d="M113.93,184H91V168.78h22.92ZM92,183h20.92V169.78H92Z" style="fill:#dbdbdb"></path><polygon points="51.96 427.17 239.05 427.17 242.94 350.4 48.07 350.4 51.96 427.17" style="fill:#ebebeb"></polygon><path d="M230.19,385.54H152l-1.47-26.65h81.4Zm-77.33-.94H229.3l1.59-24.76H151.5Z" style="fill:#dbdbdb"></path><path d="M228.74,416.2H155l-1.19-24.05h76.41Zm-72.81-.94h71.92l1.39-22.17H154.83Z" style="fill:#dbdbdb"></path><path d="M198.61,375.11H185.47l-.83-6.43h14.8Zm-12.31-.95h11.48l.58-4.54H185.71Z" style="fill:#dbdbdb"></path><path d="M198.61,407.39H185.47l-.83-6.43h14.8Zm-12.31-.95h11.48l.58-4.54H185.71Z" style="fill:#dbdbdb"></path><path d="M138.18,385.54H60L58.5,358.89h81.39Zm-77.32-.94H137.3l1.59-24.76H59.5Z" style="fill:#dbdbdb"></path><path d="M136.74,416.2H63l-1.2-24.05h76.41Zm-72.81-.94h71.92l1.39-22.17H62.83Z" style="fill:#dbdbdb"></path><path d="M106.61,375.11H93.46l-.83-6.43h14.81Zm-12.32-.95h11.49l.58-4.54H93.71Z" style="fill:#dbdbdb"></path><path d="M106.61,407.39H93.46L92.63,401h14.81Zm-12.32-.95h11.49l.58-4.54H93.71Z" style="fill:#dbdbdb"></path><polygon points="68.74 427.17 67.57 435.53 65.2 452.34 60.58 452.34 60.58 427.17 68.74 427.17" style="fill:#ebebeb"></polygon><polygon points="68.74 427.17 67.57 435.53 60.58 435.53 60.58 427.17 68.74 427.17" style="fill:#dbdbdb"></polygon><polygon points="222.27 427.17 223.45 435.53 225.81 452.34 230.43 452.34 230.43 427.17 222.27 427.17" style="fill:#ebebeb"></polygon><polygon points="222.27 427.17 223.45 435.53 230.43 435.53 230.43 427.17 222.27 427.17" style="fill:#dbdbdb"></polygon></g><g id="freepik--Device--inject-99"><rect x="120.91" y="66.23" width="258.19" height="386.11" rx="10.21" style="fill:#37474f"></rect><rect x="247.91" y="54.04" width="4.02" height="56.22" rx="1.25" transform="translate(332.06 -167.77) rotate(90)" style="fill:#263238"></rect><path d="M249.92,446.6a7.27,7.27,0,1,1,7.27-7.27A7.28,7.28,0,0,1,249.92,446.6Z" style="fill:#263238"></path><rect x="131.94" y="93.49" width="236.25" height="332.34" style="fill:#fff"></rect><rect x="131.94" y="93.49" width="236.25" height="6.36" style="fill:#02479D"></rect><path d="M137.93,96.67a1.21,1.21,0,1,1-1.21-1.2A1.2,1.2,0,0,1,137.93,96.67Z" style="fill:#c7c7c7"></path><path d="M142.84,96.67a1.21,1.21,0,1,1-1.2-1.2A1.2,1.2,0,0,1,142.84,96.67Z" style="fill:#fff"></path><path d="M147.75,96.67a1.2,1.2,0,1,1-2.4,0,1.2,1.2,0,1,1,2.4,0Z" style="fill:#455a64"></path><rect x="131.94" y="99.85" width="236.26" height="14.06" style="fill:#c7c7c7"></rect><rect x="131.94" y="113.91" width="236.26" height="10.48" style="fill:#ebebeb"></rect><rect x="-13.56" y="269.85" width="301.48" height="10.48" transform="translate(412.27 137.91) rotate(90)" style="fill:#ebebeb"></rect><path d="M139.5,121.73h-4.13a.51.51,0,0,1-.51-.52V117.1a.52.52,0,0,1,.16-.37.43.43,0,0,1,.36-.14l2.94,0a.49.49,0,0,1,.36.15l1.18,1.18a.51.51,0,0,1,.15.36v2.89A.51.51,0,0,1,139.5,121.73Zm-4.13-4.83a.18.18,0,0,0-.13.06.2.2,0,0,0-.06.14v4.11a.2.2,0,0,0,.19.2h4.13a.19.19,0,0,0,.19-.2h0v-2.89a.19.19,0,0,0-.05-.14L138.46,117a.24.24,0,0,0-.14,0l-3,0Z" style="fill:#c7c7c7"></path><path d="M138.77,121.73h-2.68v-2.07h2.68Zm-2.36-.32h2.07V120h-2.07Z" style="fill:#c7c7c7"></path><path d="M138.38,118.87h-2.29V116.6l2.29,0Zm-2-.31h1.64v-1.62l-1.65,0Z" style="fill:#c7c7c7"></path><path d="M151.3,121.77a.09.09,0,0,1-.07,0l-1.57-.84-1.57.84a.15.15,0,0,1-.16,0,.13.13,0,0,1-.06-.15l.29-1.75-1.27-1.23a.17.17,0,0,1,0-.22.14.14,0,0,1,.1,0l1.75-.26.78-1.59a.17.17,0,0,1,.23,0l.06,0,.78,1.56,1.75.26a.14.14,0,0,1,.12.11.14.14,0,0,1,0,.16l-1.26,1.23.3,1.75a.17.17,0,0,1-.07.15A.11.11,0,0,1,151.3,121.77Zm-1.64-1.18h.07l1.36.72-.26-1.51a.16.16,0,0,1,0-.14l1.1-1.07-1.52-.22a.16.16,0,0,1-.12-.09l-.68-1.37-.68,1.37a.16.16,0,0,1-.12.09l-1.51.22,1.1,1.07a.16.16,0,0,1,0,.14l-.26,1.51,1.36-.72Z" style="fill:#c7c7c7"></path><path d="M160.92,120.8a1.25,1.25,0,0,1-.14-2.49,1.52,1.52,0,0,1,3-.1,1.54,1.54,0,0,1,1.27.55,1.32,1.32,0,0,1,0,1.55,1.15,1.15,0,0,1-1.5.31.17.17,0,0,1,0-.22.17.17,0,0,1,.22-.05.85.85,0,0,0,1.08-.23,1,1,0,0,0,0-1.16,1.19,1.19,0,0,0-1.14-.42.18.18,0,0,1-.13,0,.18.18,0,0,1-.06-.13,1.21,1.21,0,0,0-2.41-.17,1,1,0,0,0,0,.24.18.18,0,0,1-.05.13.16.16,0,0,1-.11.05.93.93,0,0,0-.47,1.76.9.9,0,0,0,.66.07.17.17,0,0,1,.2.11.17.17,0,0,1-.11.2h0A1.65,1.65,0,0,1,160.92,120.8Z" style="fill:#c7c7c7"></path><path d="M163.19,119.91a.16.16,0,0,1-.12-.06l-.66-.81-.68.81a.16.16,0,1,1-.24-.2h0l.8-1a.16.16,0,0,1,.12-.06.13.13,0,0,1,.12.06l.8,1a.16.16,0,0,1,0,.22A.18.18,0,0,1,163.19,119.91Z" style="fill:#c7c7c7"></path><path d="M162.41,121.39a.16.16,0,0,1-.16-.15v-2.45a.16.16,0,0,1,.32,0v2.45A.16.16,0,0,1,162.41,121.39Z" style="fill:#c7c7c7"></path><path d="M210.46,121.79A2.84,2.84,0,1,1,213.3,119h0A2.84,2.84,0,0,1,210.46,121.79Zm0-5.36A2.54,2.54,0,1,0,213,119a2.54,2.54,0,0,0-2.54-2.54Z" style="fill:#c7c7c7"></path><path d="M211.55,119.06a.18.18,0,0,1-.1,0l-1-.88-1,.88a.16.16,0,0,1-.22,0h0a.17.17,0,0,1,0-.23l1.09-1a.17.17,0,0,1,.21,0l1.1,1a.17.17,0,0,1,0,.23.17.17,0,0,1-.12,0Z" style="fill:#c7c7c7"></path><path d="M210.46,120.56a.16.16,0,0,1-.16-.16h0V118a.16.16,0,0,1,.16-.16h0a.16.16,0,0,1,.16.16h0v2.39a.16.16,0,0,1-.15.16Z" style="fill:#c7c7c7"></path><path d="M279.54,121.93a2.84,2.84,0,1,1,2.84-2.84A2.84,2.84,0,0,1,279.54,121.93Zm0-5.36a2.54,2.54,0,1,0,2.53,2.54A2.54,2.54,0,0,0,279.54,116.57Z" style="fill:#c7c7c7"></path><path d="M280.65,119.35h-2.22a.18.18,0,0,1-.14-.19.17.17,0,0,1,.14-.13h2.22a.15.15,0,0,1,.13.18A.16.16,0,0,1,280.65,119.35Z" style="fill:#c7c7c7"></path><path d="M290.46,121.93a2.84,2.84,0,1,1,2.83-2.84h0A2.84,2.84,0,0,1,290.46,121.93Zm0-5.36a2.54,2.54,0,1,0,2.53,2.54A2.54,2.54,0,0,0,290.46,116.57Z" style="fill:#c7c7c7"></path><path d="M291.56,119.35h-2.21a.16.16,0,0,1-.18-.14.15.15,0,0,1,.13-.18h2.27a.17.17,0,0,1,.19.13.18.18,0,0,1-.14.19h-.06Z" style="fill:#c7c7c7"></path><path d="M290.46,120.41a.16.16,0,0,1-.16-.16h0V118a.16.16,0,1,1,.31,0v2.27A.16.16,0,0,1,290.46,120.41Z" style="fill:#c7c7c7"></path><path d="M222,121.79a2.84,2.84,0,1,1,2.84-2.84,2.85,2.85,0,0,1-2.84,2.84Zm0-5.36A2.54,2.54,0,1,0,224.5,119a2.54,2.54,0,0,0-2.53-2.54Z" style="fill:#c7c7c7"></path><path d="M222,120.14a.21.21,0,0,1-.11,0l-1.1-1a.16.16,0,0,1,0-.22.17.17,0,0,1,.23,0h0l1,.88,1-.88a.16.16,0,0,1,.22,0h0a.16.16,0,0,1,0,.22l-1.1,1A.22.22,0,0,1,222,120.14Z" style="fill:#c7c7c7"></path><path d="M222,120.05a.16.16,0,0,1-.16-.16v-2.4a.15.15,0,0,1,.18-.13.17.17,0,0,1,.14.13v2.39a.17.17,0,0,1-.16.17Z" style="fill:#c7c7c7"></path><path d="M177.59,117.81h-5.5a.25.25,0,0,0-.25.26v2.39a.26.26,0,0,0,.26.26h1.07v-.31h-1v-2.28h5.37v2.28h-.89v.31h1a.26.26,0,0,0,.25-.27v-2.38A.25.25,0,0,0,177.59,117.81Z" style="fill:#c7c7c7"></path><path d="M176.7,116.3h-3.59a.26.26,0,0,0-.26.26v1.3a.27.27,0,0,0,.26.27h3.59a.27.27,0,0,0,.26-.27v-1.3A.26.26,0,0,0,176.7,116.3Zm-3.53,1.51v-1.19h3.47v1.19Z" style="fill:#c7c7c7"></path><rect x="176.52" y="118.56" width="0.47" height="0.31" style="fill:#c7c7c7"></rect><path d="M176.7,119.39h-3.59a.1.1,0,0,0-.1.1v2.07a.11.11,0,0,0,.1.1h3.59a.1.1,0,0,0,.1-.1v-2.07A.09.09,0,0,0,176.7,119.39Zm-.06,2.11h-3.47v-2h3.47Z" style="fill:#c7c7c7"></path><path d="M176.7,119.23h-3.59a.26.26,0,0,0-.26.26v2.07a.26.26,0,0,0,.26.26h3.59a.26.26,0,0,0,.26-.26v-2.07A.26.26,0,0,0,176.7,119.23Zm-.06,2.27h-3.47v-2h3.47Z" style="fill:#c7c7c7"></path><path d="M172.16,118.13v2.28h.69v-.92a.26.26,0,0,1,.26-.26h3.59a.26.26,0,0,1,.26.26v.92h.57v-2.28Zm4.83.74h-.47v-.31H177Z" style="fill:#c7c7c7"></path><path d="M319.83,123.59c-.06,0-.11-2-.11-4.5s0-4.5.11-4.5.11,2,.11,4.5S319.89,123.59,319.83,123.59Z" style="fill:#c7c7c7"></path><path d="M250,123.59c-.06,0-.11-2-.11-4.5s.05-4.5.11-4.5.11,2,.11,4.5S250.06,123.59,250,123.59Z" style="fill:#c7c7c7"></path><path d="M132.57,124.35c0-.06,2-.11,4.5-.11s4.5.05,4.5.11-2,.11-4.5.11S132.57,124.4,132.57,124.35Z" style="fill:#c7c7c7"></path><path d="M185.48,120.42a2,2,0,1,1,2-2A2,2,0,0,1,185.48,120.42Zm0-3.75a1.73,1.73,0,1,0,1.73,1.72A1.72,1.72,0,0,0,185.48,116.67Z" style="fill:#c7c7c7"></path><rect x="187.5" y="119.42" width="0.3" height="2.63" transform="translate(-30.4 168.08) rotate(-45.01)" style="fill:#c7c7c7"></rect><path d="M184.87,118.39a.23.23,0,1,1-.45,0,.22.22,0,0,1,.22-.22A.22.22,0,0,1,184.87,118.39Z" style="fill:#c7c7c7"></path><path d="M185.71,118.39a.23.23,0,1,1-.45,0,.22.22,0,0,1,.22-.22A.22.22,0,0,1,185.71,118.39Z" style="fill:#c7c7c7"></path><path d="M186.55,118.39a.23.23,0,1,1-.45,0,.22.22,0,0,1,.22-.22A.22.22,0,0,1,186.55,118.39Z" style="fill:#c7c7c7"></path><path d="M235.26,118.27l-.4.23-.05,0a.1.1,0,0,1-.08,0,.09.09,0,0,1,0-.13l.54-.33a.1.1,0,0,1,.13,0,.17.17,0,0,1,0,.07v2.57a.1.1,0,0,1-.1.1.1.1,0,0,1-.09-.1Z" style="fill:#c7c7c7"></path><path d="M238.63,120.65l1.1-2.59a.09.09,0,0,1,.12,0,.09.09,0,0,1,.06.13l-1.1,2.59a.08.08,0,0,1-.08.06h0A.1.1,0,0,1,238.63,120.65Z" style="fill:#c7c7c7"></path><path d="M241.89,118.27l-.4.23-.05,0a.1.1,0,0,1-.08,0,.09.09,0,0,1,0-.13l.53-.33a.11.11,0,0,1,.14,0,.17.17,0,0,1,0,.07v2.57a.1.1,0,0,1-.1.1.1.1,0,0,1-.09-.1Z" style="fill:#c7c7c7"></path><rect x="232.67" y="121.38" width="5.32" height="0.25" style="fill:#c7c7c7"></rect><path d="M301.1,117.66l-.39.24h0a.11.11,0,0,1-.09,0,.1.1,0,0,1,0-.13l.54-.33a.11.11,0,0,1,.13,0,.09.09,0,0,1,0,.07v2.57a.1.1,0,0,1-.09.1.11.11,0,0,1-.1-.1Z" style="fill:#c7c7c7"></path><path d="M302,118.78a1.79,1.79,0,0,1,.26-1,.88.88,0,0,1,.7-.42.86.86,0,0,1,.7.42,1.79,1.79,0,0,1,.27,1,1.76,1.76,0,0,1-.27,1,.84.84,0,0,1-.7.43.87.87,0,0,1-.7-.43A1.75,1.75,0,0,1,302,118.78Zm.19,0a1.57,1.57,0,0,0,.24.87.66.66,0,0,0,.53.33.69.69,0,0,0,.54-.33,1.7,1.7,0,0,0,0-1.74.66.66,0,0,0-.54-.33.63.63,0,0,0-.53.33A1.57,1.57,0,0,0,302.22,118.78Z" style="fill:#c7c7c7"></path><path d="M304.87,118.78a1.79,1.79,0,0,1,.26-1,.88.88,0,0,1,.7-.42.86.86,0,0,1,.7.42,1.79,1.79,0,0,1,.27,1,1.76,1.76,0,0,1-.27,1,.84.84,0,0,1-.7.43.87.87,0,0,1-.7-.43A1.75,1.75,0,0,1,304.87,118.78Zm.19,0a1.57,1.57,0,0,0,.24.87.66.66,0,0,0,.53.33.69.69,0,0,0,.54-.33,1.7,1.7,0,0,0,0-1.74.66.66,0,0,0-.54-.33.63.63,0,0,0-.53.33A1.57,1.57,0,0,0,305.06,118.78Z" style="fill:#c7c7c7"></path><path d="M307.67,118.07h0a.62.62,0,1,1,1.23,0h0a.67.67,0,0,1-.62.72A.66.66,0,0,1,307.67,118.07Zm1,0h0c0-.31-.19-.54-.41-.54s-.41.24-.41.54h0c0,.32.19.55.42.55S308.69,118.37,308.69,118.07Zm-.64,2,1.94-2.65a.1.1,0,0,1,.08,0,.09.09,0,0,1,.09.09s0,0,0,0l-1.95,2.65a.08.08,0,0,1-.07,0,.08.08,0,0,1-.09-.08S308,120.07,308.05,120.06Zm1.24-.56h0a.66.66,0,0,1,.62-.71.66.66,0,0,1,.61.71h0a.67.67,0,0,1-.62.72A.66.66,0,0,1,309.29,119.5Zm1,0h0c0-.31-.19-.54-.41-.54s-.4.24-.4.54h0c0,.32.18.55.41.55S310.31,119.8,310.31,119.5Z" style="fill:#c7c7c7"></path><rect x="299.8" y="121.38" width="14.08" height="0.25" style="fill:#c7c7c7"></rect><polygon points="315.65 118.47 316.85 118.47 316.25 119.07 315.65 118.47" style="fill:#c7c7c7"></polygon><polygon points="258.76 119.74 259.44 121.38 258.76 121.66 258.08 120.01 256.95 120.88 256.95 116.25 260.2 119.52 258.76 119.74" style="fill:#c7c7c7"></polygon><path d="M268.55,122a2.54,2.54,0,0,1-1-.19,1.75,1.75,0,0,1-.79-.67l-.87-1.31-.14-.22a.62.62,0,0,1-.09-.46.52.52,0,0,1,.8-.31.74.74,0,0,1,.18.17l.18.24V117a.47.47,0,0,1,.75-.38.29.29,0,0,1,.1.12v-.18a.47.47,0,0,1,.24-.41.48.48,0,0,1,.7.38.31.31,0,0,1,.07-.09.53.53,0,0,1,.34-.13.48.48,0,0,1,.45.41v.44a.46.46,0,0,1,.2-.16.44.44,0,0,1,.49.06.47.47,0,0,1,.17.38v2.89a1.7,1.7,0,0,1-.16.74,1.4,1.4,0,0,1-.93.81A2.67,2.67,0,0,1,268.55,122Zm-2.35-3-.11,0a.25.25,0,0,0-.15.19.31.31,0,0,0,.05.26l.14.22L267,121a1.41,1.41,0,0,0,.67.57,2.27,2.27,0,0,0,1.54.09A1.18,1.18,0,0,0,270,121a1.48,1.48,0,0,0,.13-.63v-2.89a.19.19,0,0,0-.08-.18.2.2,0,0,0-.23,0,.19.19,0,0,0-.13.19v1.37a.29.29,0,0,1-.06.19.38.38,0,0,1-.15,0c-.1,0-.21-.06-.21-.24v-2a.22.22,0,0,0-.21-.19.25.25,0,0,0-.16.06.24.24,0,0,0-.07.16v1.85a.21.21,0,0,1-.2.19.2.2,0,0,1-.21-.18.17.17,0,0,1,0-.07v-2a.22.22,0,0,0-.11-.18.2.2,0,0,0-.21,0,.22.22,0,0,0-.12.19v2.08a.21.21,0,0,1-.21.18.22.22,0,0,1-.21-.18V117a.2.2,0,0,0-.09-.17.21.21,0,0,0-.19,0,.22.22,0,0,0-.15.22v2.69l-.17,0-.06-.06-.11-.15-.29-.39a.38.38,0,0,0-.11-.11A.33.33,0,0,0,266.2,119Z" style="fill:#c7c7c7"></path><path d="M139.56,133.7h-2.77a.56.56,0,0,1-.56-.56v-3.8a.56.56,0,0,1,.56-.56h2a.55.55,0,0,1,.37.14l1,.89v3.33A.56.56,0,0,1,139.56,133.7Zm-2.77-4.61a.25.25,0,0,0-.25.25v3.8a.26.26,0,0,0,.25.26h2.77a.26.26,0,0,0,.25-.26v-3.2l-.89-.8a.27.27,0,0,0-.17-.06Z" style="fill:#c7c7c7"></path><path d="M138,135.19h-2.73a.57.57,0,0,1-.56-.57V131a.56.56,0,0,1,.56-.55h1.12v.32h-1.12a.24.24,0,0,0-.25.24h0v3.63a.25.25,0,0,0,.25.25H138a.26.26,0,0,0,.26-.25v-1.08h.3v1.08A.56.56,0,0,1,138,135.19Z" style="fill:#c7c7c7"></path><polygon points="139.97 130.12 138.82 130.12 138.82 129.08 139.07 129.08 139.07 129.87 139.97 129.87 139.97 130.12" style="fill:#c7c7c7"></polygon><path d="M139.11,146.45a.2.2,0,0,1-.15-.06l-1.57-1.22-1.52,1.22a.23.23,0,0,1-.27,0,.24.24,0,0,1-.14-.22v-4.79h3.9v4.79a.24.24,0,0,1-.14.22A.2.2,0,0,1,139.11,146.45Zm-1.72-1.59a.3.3,0,0,1,.16,0l1.51,1.18v-4.37h-3.28v4.36l1.47-1.16A.2.2,0,0,1,137.39,144.86Z" style="fill:#c7c7c7"></path><path d="M136.32,158.25a1.58,1.58,0,0,1-1.58-1.58,1.56,1.56,0,0,1,.43-1.1l2.4-2.52a1.19,1.19,0,0,1,.85-.37,1.23,1.23,0,0,1,1.23,1.21,1.25,1.25,0,0,1-.37.87L137,156.94a.65.65,0,0,1-.9,0,.64.64,0,0,1-.19-.46.61.61,0,0,1,.2-.45l1.81-1.78.22.21-1.82,1.79a.34.34,0,0,0-.1.23.31.31,0,0,0,.1.24.33.33,0,0,0,.47,0l2.28-2.2a.93.93,0,0,0,.27-.65.88.88,0,0,0-.28-.65.87.87,0,0,0-.65-.25.86.86,0,0,0-.63.28l-2.37,2.53a1.28,1.28,0,0,0,1.81,1.81l2.65-2.56.21.22-2.65,2.56A1.56,1.56,0,0,1,136.32,158.25Z" style="fill:#c7c7c7"></path><rect x="186.32" y="103.61" width="36.42" height="10.3" style="fill:#ebebeb"></rect><path d="M192.71,108.76c3.94-.2,7.88-.22,11.82-.25s7.89,0,11.83.25c-3.94.21-7.89.22-11.83.25S196.65,109,192.71,108.76Z" style="fill:#c7c7c7"></path><path d="M159,108.76c3.66-.2,7.32-.22,11-.25s7.32,0,11,.25c-3.66.21-7.32.22-11,.25S162.61,109,159,108.76Z" style="fill:#ebebeb"></path><path d="M135.57,108.76c2.81-.2,5.63-.22,8.45-.25s5.63,0,8.44.25c-2.81.21-5.63.22-8.44.25S138.38,109,135.57,108.76Z" style="fill:#ebebeb"></path><rect x="165.37" y="148.8" width="50.05" height="3.39" style="fill:#455a64"></rect><polygon points="164.94 167.69 175.56 167.5 186.18 167.4 207.41 167.31 228.65 167.4 239.27 167.5 249.89 167.69 239.27 167.87 228.65 167.97 207.41 168.06 186.18 167.97 175.56 167.87 164.94 167.69" style="fill:#a6a6a6"></polygon><path d="M305.06,167.69c3.36-.16,6.72-.23,10.08-.29s6.72-.06,10.08-.09,6.72,0,10.08.09,6.72.13,10.08.29c-3.36.15-6.72.22-10.08.28s-6.72.06-10.08.09-6.72,0-10.08-.09S308.42,167.84,305.06,167.69Z" style="fill:#a6a6a6"></path><path d="M256.54,167.69c3.36-.16,6.72-.23,10.08-.29s6.72-.06,10.08-.09,6.72,0,10.08.09,6.72.13,10.08.29c-3.36.15-6.72.22-10.08.28s-6.72.06-10.08.09-6.72,0-10.08-.09S259.9,167.84,256.54,167.69Z" style="fill:#a6a6a6"></path><path d="M164.94,178.79c5-.15,10-.22,15-.28l15-.09,15,.09c5,.06,10,.13,15,.28-5,.16-10,.23-15,.29l-15,.09-15-.09C174.91,179,169.93,179,164.94,178.79Z" style="fill:#a6a6a6"></path><path d="M235.33,178.79c3.45-.15,6.9-.22,10.34-.28s6.9-.06,10.34-.09,6.9,0,10.35.09,6.89.13,10.34.28c-3.45.16-6.9.23-10.34.29s-6.9.06-10.35.09-6.89,0-10.34-.09S238.78,179,235.33,178.79Z" style="fill:#a6a6a6"></path><polygon points="164.94 189.9 175.07 189.72 185.2 189.62 205.47 189.53 225.73 189.61 235.86 189.72 245.99 189.9 235.86 190.09 225.73 190.19 205.47 190.28 185.2 190.19 175.07 190.09 164.94 189.9" style="fill:#a6a6a6"></polygon><path d="M255.16,189.9c2.72-.15,5.45-.22,8.18-.28s5.46-.06,8.19-.09,5.45,0,8.18.08,5.46.14,8.18.29c-2.72.16-5.45.23-8.18.29s-5.46.06-8.18.09-5.46,0-8.19-.09S257.88,190.06,255.16,189.9Z" style="fill:#a6a6a6"></path><path d="M296.86,189.9c2.31-.15,4.63-.22,6.94-.28s4.63-.06,6.95-.09,4.63,0,6.94.08,4.63.14,6.95.29c-2.32.16-4.63.23-6.95.29s-4.63.06-6.94.09-4.63,0-6.95-.09S299.17,190.06,296.86,189.9Z" style="fill:#a6a6a6"></path><path d="M164.94,201c2.57-.15,5.14-.23,7.71-.29s5.14-.05,7.71-.08,5.14,0,7.71.08,5.14.13,7.71.29c-2.57.16-5.14.23-7.71.29s-5.14.06-7.71.09-5.14,0-7.71-.09S167.51,201.17,164.94,201Z" style="fill:#a6a6a6"></path><path d="M205.47,201c5.06-.15,10.13-.23,15.2-.29l15.2-.08,15.21.08c5.06.06,10.13.13,15.2.29-5.07.16-10.14.23-15.2.29l-15.21.09-15.2-.09C215.6,201.24,210.53,201.17,205.47,201Z" style="fill:#a6a6a6"></path><polygon points="274.26 201.01 283.15 200.83 292.04 200.72 309.82 200.64 327.6 200.72 336.49 200.83 345.38 201.01 336.49 201.19 327.6 201.3 309.82 201.38 292.04 201.3 283.15 201.19 274.26 201.01" style="fill:#a6a6a6"></polygon><path d="M164.94,212.12c4.44-.16,8.88-.23,13.32-.29l13.32-.09,13.32.09c4.45.06,8.89.13,13.33.29-4.44.15-8.88.23-13.33.29l-13.32.08-13.32-.08C173.82,212.35,169.38,212.27,164.94,212.12Z" style="fill:#a6a6a6"></path><path d="M224.81,212.12c2.53-.16,5.05-.23,7.58-.29s5.06-.05,7.59-.09,5.06,0,7.59.09,5.06.13,7.59.29c-2.53.15-5.06.23-7.59.29s-5.06.05-7.59.08-5.06,0-7.59-.08S227.34,212.27,224.81,212.12Z" style="fill:#a6a6a6"></path><path d="M164.94,234.34c4.64-.16,9.29-.23,13.94-.29l14-.09,13.94.09c4.65.06,9.3.13,13.95.29-4.65.15-9.3.22-13.95.28l-13.94.09-14-.09C174.23,234.56,169.58,234.49,164.94,234.34Z" style="fill:#a6a6a6"></path><path d="M230.25,234.34c4.21-.16,8.42-.23,12.63-.29l12.63-.09,12.64.09c4.21.06,8.42.13,12.63.29-4.21.15-8.42.22-12.63.28l-12.64.09-12.63-.09C238.67,234.56,234.46,234.49,230.25,234.34Z" style="fill:#a6a6a6"></path><path d="M290.61,234.34c1.94-.16,3.88-.23,5.82-.29s3.88-.08,5.82-.09,3.88,0,5.82.09,3.88.13,5.82.29c-1.94.15-3.88.22-5.82.28s-3.88.08-5.82.09-3.88,0-5.82-.09S292.55,234.49,290.61,234.34Z" style="fill:#a6a6a6"></path><path d="M319.94,234.34c2.12-.16,4.24-.23,6.36-.29s4.24-.06,6.36-.09,4.24,0,6.36.09,4.24.13,6.36.29c-2.12.15-4.24.22-6.36.28s-4.24.06-6.36.09-4.24,0-6.36-.09S322.06,234.49,319.94,234.34Z" style="fill:#a6a6a6"></path><path d="M164.94,245.44c2.64-.15,5.29-.22,7.94-.28s5.3-.06,8-.09,5.3,0,7.95.09,5.29.13,7.94.28c-2.65.16-5.3.23-7.94.29s-5.3.06-7.95.09-5.3,0-8-.09S167.58,245.6,164.94,245.44Z" style="fill:#a6a6a6"></path><path d="M204.26,245.44c5-.15,10.05-.22,15.08-.28l15.07-.09,15.08.09c5,.06,10.05.13,15.07.28-5,.16-10.05.23-15.07.29l-15.08.09-15.07-.09C214.31,245.67,209.29,245.6,204.26,245.44Z" style="fill:#a6a6a6"></path><path d="M272.54,245.44c3-.15,6.06-.22,9.09-.28s6.06-.06,9.09-.09,6.06,0,9.09.09,6.06.13,9.09.28c-3,.16-6.06.23-9.09.29s-6.06.06-9.09.09-6.06,0-9.09-.09S275.57,245.6,272.54,245.44Z" style="fill:#a6a6a6"></path><path d="M313.89,245.44c2.06-.15,4.12-.22,6.18-.28s4.12-.08,6.18-.09,4.12,0,6.18.09,4.12.13,6.18.28c-2.06.16-4.12.23-6.18.29s-4.12.08-6.18.09-4.12,0-6.18-.09S316,245.6,313.89,245.44Z" style="fill:#a6a6a6"></path><polygon points="164.94 256.55 175.07 256.37 185.2 256.26 205.47 256.18 225.73 256.26 235.86 256.37 245.99 256.55 235.86 256.74 225.73 256.84 205.47 256.93 185.2 256.84 175.07 256.74 164.94 256.55" style="fill:#a6a6a6"></polygon><path d="M255.16,256.55c5.18-.15,10.36-.22,15.54-.28l15.54-.09,15.55.08c5.18.06,10.36.14,15.54.29-5.18.16-10.36.23-15.54.29l-15.55.09-15.54-.09C265.52,256.78,260.34,256.71,255.16,256.55Z" style="fill:#a6a6a6"></path><path d="M164.94,267.66c4.44-.15,8.88-.23,13.32-.29l13.32-.08,13.32.08c4.45.06,8.89.13,13.33.29-4.44.16-8.88.23-13.33.29l-13.32.09L178.26,268C173.82,267.89,169.38,267.82,164.94,267.66Z" style="fill:#a6a6a6"></path><polygon points="226.21 267.66 234.59 267.48 242.98 267.37 259.75 267.29 276.52 267.37 284.91 267.48 293.29 267.66 284.91 267.84 276.52 267.95 259.75 268.04 242.98 267.95 234.59 267.84 226.21 267.66" style="fill:#a6a6a6"></polygon><path d="M301.36,267.66c3.67-.15,7.34-.23,11-.29s7.33-.05,11-.08l11,.08c3.67.06,7.34.13,11,.29-3.67.16-7.34.23-11,.29l-11,.09c-3.67,0-7.34,0-11-.09S305,267.82,301.36,267.66Z" style="fill:#a6a6a6"></path><polygon points="164.94 278.77 176.21 278.59 187.49 278.48 210.05 278.39 232.6 278.48 243.88 278.58 255.16 278.77 243.88 278.95 232.6 279.06 210.05 279.14 187.49 279.06 176.21 278.95 164.94 278.77" style="fill:#a6a6a6"></polygon><polygon points="164.94 300.99 173.8 300.8 182.67 300.7 200.4 300.61 218.14 300.7 227 300.8 235.87 300.99 227 301.17 218.14 301.27 200.4 301.36 182.67 301.27 173.8 301.17 164.94 300.99" style="fill:#a6a6a6"></polygon><path d="M244.83,301c4.19-.16,8.38-.23,12.57-.29l12.57-.09,12.56.09c4.19.06,8.38.13,12.57.29-4.19.15-8.38.22-12.57.28l-12.56.09-12.57-.09C253.21,301.21,249,301.14,244.83,301Z" style="fill:#a6a6a6"></path><path d="M305.06,301c2.7-.16,5.41-.23,8.11-.29s5.41-.06,8.11-.09,5.41,0,8.11.09,5.41.13,8.11.29c-2.7.15-5.41.22-8.11.28s-5.41.06-8.11.09-5.41,0-8.11-.09S307.76,301.14,305.06,301Z" style="fill:#a6a6a6"></path><path d="M164.94,312.09c4.18-.15,8.36-.22,12.54-.28l12.55-.09,12.55.09c4.18.06,8.36.13,12.54.28-4.18.16-8.36.23-12.54.29l-12.55.09-12.55-.09C173.3,312.32,169.12,312.25,164.94,312.09Z" style="fill:#a6a6a6"></path><path d="M223.77,312.09c2.29-.15,4.58-.22,6.87-.28s4.58-.06,6.87-.09,4.59,0,6.88.09,4.58.13,6.87.28c-2.29.16-4.58.23-6.87.29s-4.59.06-6.88.09-4.58,0-6.87-.09S226.06,312.25,223.77,312.09Z" style="fill:#a6a6a6"></path><path d="M259.75,312.09c5-.15,10-.22,15.05-.28l15.05-.09,15,.09c5,.06,10,.13,15.05.28-5,.16-10,.23-15.05.29l-15,.09-15.05-.09C269.78,312.32,264.77,312.25,259.75,312.09Z" style="fill:#a6a6a6"></path><path d="M164.94,323.2c3.09-.15,6.18-.22,9.27-.28s6.19-.06,9.28-.09,6.18,0,9.28.08,6.18.14,9.27.29c-3.09.16-6.18.23-9.27.29s-6.19.06-9.28.09-6.18,0-9.28-.09S168,323.36,164.94,323.2Z" style="fill:#a6a6a6"></path><polygon points="210.05 323.2 218.38 323.02 226.71 322.92 243.37 322.83 260.04 322.91 268.37 323.02 276.7 323.2 268.37 323.39 260.04 323.49 243.37 323.58 226.71 323.49 218.38 323.38 210.05 323.2" style="fill:#a6a6a6"></polygon><path d="M287.89,323.2c3.42-.15,6.83-.22,10.24-.28s6.83-.06,10.24-.09,6.83,0,10.24.08,6.83.14,10.24.29c-3.41.16-6.82.23-10.24.29s-6.82.06-10.24.09-6.82,0-10.24-.09S291.31,323.36,287.89,323.2Z" style="fill:#a6a6a6"></path><polygon points="164.94 334.31 173.74 334.13 182.53 334.02 200.13 333.94 217.73 334.02 226.53 334.13 235.33 334.31 226.53 334.49 217.73 334.6 200.13 334.69 182.53 334.6 173.74 334.49 164.94 334.31" style="fill:#a6a6a6"></polygon><path d="M243.37,334.31c3.8-.15,7.6-.23,11.4-.29s7.59,0,11.39-.08l11.39.08c3.8.06,7.6.13,11.4.29-3.8.16-7.6.23-11.4.29l-11.39.09c-3.8,0-7.6,0-11.39-.09S247.17,334.47,243.37,334.31Z" style="fill:#a6a6a6"></path><path d="M318.67,334.31c-1.72.16-3.43.23-5.15.29s-3.43.08-5.15.09-3.43,0-5.15-.09-3.43-.13-5.14-.29c1.71-.16,3.43-.23,5.14-.29s3.44-.08,5.15-.08,3.44,0,5.15.08S317,334.16,318.67,334.31Z" style="fill:#a6a6a6"></path><path d="M164.94,356.53c4.77-.16,9.55-.23,14.33-.29l14.34-.09,14.33.09c4.78.06,9.56.13,14.33.29-4.77.15-9.55.23-14.33.29l-14.33.08-14.34-.09C174.49,356.75,169.71,356.68,164.94,356.53Z" style="fill:#a6a6a6"></path><path d="M232.67,356.53c2.46-.16,4.91-.23,7.36-.29s4.91-.06,7.37-.09,4.91,0,7.36.09,4.91.13,7.36.29c-2.45.15-4.91.23-7.36.29s-4.91.05-7.36.08-4.91,0-7.37-.09S235.13,356.68,232.67,356.53Z" style="fill:#a6a6a6"></path><path d="M164.94,367.64c3.65-.16,7.3-.23,10.95-.29s7.3-.06,11-.09l11,.09c3.65.06,7.3.13,10.95.29-3.65.15-7.3.22-10.95.28l-11,.09c-3.65,0-7.3,0-11-.09S168.59,367.79,164.94,367.64Z" style="fill:#a6a6a6"></path><path d="M216.07,367.64c2.49-.16,5-.23,7.48-.29s5-.06,7.48-.09,5,0,7.48.09,5,.13,7.48.29c-2.49.15-5,.22-7.48.28s-5,.06-7.48.09-5,0-7.48-.09S218.56,367.79,216.07,367.64Z" style="fill:#a6a6a6"></path><path d="M254.14,367.64c4.71-.16,9.42-.23,14.13-.29l14.14-.09,14.13.09c4.71.06,9.42.13,14.13.29-4.71.15-9.42.22-14.13.28l-14.13.09-14.14-.09C263.56,367.86,258.85,367.79,254.14,367.64Z" style="fill:#a6a6a6"></path><path d="M317.33,367.64c2.34-.16,4.67-.23,7-.29s4.68-.06,7-.09,4.68,0,7,.09,4.68.13,7,.29c-2.34.15-4.68.22-7,.28s-4.67.06-7,.09-4.67,0-7-.09S319.67,367.79,317.33,367.64Z" style="fill:#a6a6a6"></path><path d="M164.94,378.74c2.66-.15,5.33-.22,8-.28s5.33-.06,8-.09,5.33,0,8,.09,5.34.13,8,.28c-2.66.16-5.33.23-8,.29s-5.33.06-8,.09-5.33,0-8-.09S167.6,378.9,164.94,378.74Z" style="fill:#a6a6a6"></path><polygon points="204.26 378.74 213.84 378.56 223.42 378.46 242.59 378.37 261.75 378.46 271.33 378.56 280.91 378.74 271.33 378.93 261.75 379.03 242.59 379.12 223.42 379.03 213.84 378.93 204.26 378.74" style="fill:#a6a6a6"></polygon><path d="M287.89,378.74c2.4-.15,4.79-.22,7.19-.28s4.79-.06,7.18-.09,4.79,0,7.19.09,4.79.13,7.19.28c-2.4.16-4.79.23-7.19.29s-4.79.06-7.19.09-4.79,0-7.18-.09S290.29,378.9,287.89,378.74Z" style="fill:#a6a6a6"></path><path d="M324.47,378.74c1.75-.15,3.49-.22,5.23-.28s3.48-.08,5.22-.09,3.49,0,5.23.09,3.48.13,5.23.28c-1.75.16-3.49.23-5.23.29s-3.48.08-5.23.09-3.48,0-5.22-.09S326.22,378.9,324.47,378.74Z" style="fill:#a6a6a6"></path><path d="M164.94,389.85c4.77-.15,9.55-.22,14.33-.28l14.34-.09,14.33.08c4.78.06,9.56.14,14.33.29-4.77.16-9.55.23-14.33.29l-14.33.09-14.34-.09C174.49,390.08,169.71,390,164.94,389.85Z" style="fill:#a6a6a6"></path><path d="M229.24,389.85c2.74-.15,5.48-.22,8.22-.28s5.48-.06,8.22-.09,5.48,0,8.22.08,5.48.14,8.22.29c-2.74.16-5.48.23-8.22.29s-5.48.06-8.22.09-5.48,0-8.22-.09S232,390,229.24,389.85Z" style="fill:#a6a6a6"></path><polygon points="269.97 389.85 279.39 389.67 288.82 389.56 307.67 389.48 326.52 389.56 335.95 389.67 345.38 389.85 335.95 390.04 326.52 390.14 307.67 390.23 288.82 390.14 279.39 390.04 269.97 389.85" style="fill:#a6a6a6"></polygon><path d="M164.94,401c3.76-.15,7.51-.23,11.27-.29s7.52-.05,11.28-.08l11.28.08c3.76.06,7.52.13,11.28.29-3.76.16-7.52.23-11.28.29l-11.28.09c-3.76,0-7.52,0-11.28-.09S168.7,401.12,164.94,401Z" style="fill:#a6a6a6"></path><path d="M216.07,401c3.25-.15,6.51-.23,9.77-.29s6.51-.05,9.77-.08,6.52,0,9.77.08,6.52.13,9.78.29c-3.26.16-6.52.23-9.78.29s-6.51.06-9.77.09-6.51,0-9.77-.09S219.32,401.12,216.07,401Z" style="fill:#a6a6a6"></path><path d="M301.48,401c-3.18.16-6.36.23-9.54.29s-6.35.05-9.53.09-6.36,0-9.54-.09-6.35-.13-9.53-.29c3.18-.16,6.36-.23,9.53-.29s6.36-.05,9.54-.08,6.35,0,9.53.08S298.3,400.81,301.48,401Z" style="fill:#a6a6a6"></path><path d="M285.62,178.79c5-.15,10-.22,14.94-.28l14.94-.09,14.94.09c5,.06,10,.13,14.94.28-5,.16-10,.23-14.94.29l-14.94.09-14.94-.09C295.58,179,290.6,179,285.62,178.79Z" style="fill:#a6a6a6"></path><polygon points="271.43 356.53 280.68 356.35 289.92 356.24 308.4 356.15 326.89 356.24 336.13 356.34 345.38 356.53 336.13 356.71 326.89 356.82 308.4 356.9 289.92 356.81 280.68 356.71 271.43 356.53" style="fill:#a6a6a6"></polygon></g><g id="freepik--Highlights--inject-99"><rect x="249.16" y="163.78" width="48.34" height="7.81" style="fill:#02479D;opacity:0.5"></rect><rect x="214.44" y="397.05" width="46.15" height="7.81" style="fill:#02479D;opacity:0.5"></rect><rect x="164.48" y="330.4" width="126.24" height="7.81" style="fill:#02479D;opacity:0.5"></rect><rect x="221.82" y="263.75" width="123.52" height="7.81" style="fill:#02479D;opacity:0.5"></rect></g><g id="freepik--Annotations--inject-99"><rect x="365.28" y="154.57" width="82.63" height="27.41" style="fill:#fff"></rect><path d="M447.91,182l-82.63.21h-.21V182l0-27.41v-.25h.25l82.63.1h.15v.15L448,168.31Zm0,0-.15-27.41.15.15-82.63.1.25-.25,0,27.41-.21-.21Z" style="fill:#263238"></path><path d="M375,163.51h-1.62l-.32.86a.37.37,0,0,1-.35.23.25.25,0,0,1-.12,0,.37.37,0,0,1-.22-.48l1.47-3.91a.38.38,0,0,1,.7,0L376,164.1a.37.37,0,0,1-.22.48.23.23,0,0,1-.12,0,.35.35,0,0,1-.34-.23Zm-.27-.74-.54-1.43-.54,1.43Z" style="fill:#263238"></path><path d="M379.59,162.66v1.59a.35.35,0,0,1-.7,0v-1.59a.68.68,0,0,0-.69-.67.66.66,0,0,0-.67.67v1.59a.2.2,0,0,1,0,.07.36.36,0,0,1-.71-.07v-2.62a.36.36,0,0,1,.68-.15,1.38,1.38,0,0,1,2.1,1.18Z" style="fill:#263238"></path><path d="M383.67,162.66v1.59a.35.35,0,1,1-.7,0v-1.59a.68.68,0,0,0-.69-.67.66.66,0,0,0-.67.67v1.59a.2.2,0,0,1,0,.07.36.36,0,0,1-.71-.07v-2.62a.36.36,0,0,1,.68-.15,1.38,1.38,0,0,1,2.1,1.18Z" style="fill:#263238"></path><path d="M385.28,164.12a1.66,1.66,0,0,1-.46-1.17,1.7,1.7,0,0,1,.46-1.17,1.57,1.57,0,0,1,1.14-.5,1.47,1.47,0,0,1,1.11.5A1.66,1.66,0,0,1,388,163a1.63,1.63,0,0,1-.47,1.17,1.47,1.47,0,0,1-1.11.5A1.57,1.57,0,0,1,385.28,164.12Zm.27-1.17a1,1,0,0,0,.24.7.88.88,0,0,0,.63.25.89.89,0,0,0,.62-.25,1.07,1.07,0,0,0,0-1.4,1,1,0,0,0-.62-.25,1,1,0,0,0-.63.25A1,1,0,0,0,385.55,163Z" style="fill:#263238"></path><path d="M390.5,161.64a.38.38,0,0,1-.37.37H390v1.85a.37.37,0,0,1,.36.38.36.36,0,0,1-.36.36.74.74,0,0,1-.74-.74V162H389a.37.37,0,0,1-.36-.37.36.36,0,0,1,.36-.36h.2v-1a.36.36,0,0,1,.37-.36.37.37,0,0,1,.37.36v1h.16A.37.37,0,0,1,390.5,161.64Z" style="fill:#263238"></path><path d="M394.28,163v1.3a.35.35,0,0,1-.69.07,1.56,1.56,0,0,1-2-.2,1.69,1.69,0,0,1-.45-1.17,1.66,1.66,0,0,1,.45-1.17,1.53,1.53,0,0,1,1.13-.5,1.55,1.55,0,0,1,.89.29.35.35,0,0,1,.34-.29.36.36,0,0,1,.35.36Zm-.7,0a1,1,0,0,0-.26-.69.83.83,0,0,0-.62-.27.8.8,0,0,0-.62.27,1.06,1.06,0,0,0,0,1.37.82.82,0,0,0,.62.26.85.85,0,0,0,.62-.26A1,1,0,0,0,393.58,163Z" style="fill:#263238"></path><path d="M397.09,161.64a.38.38,0,0,1-.38.37h-.16v1.85a.37.37,0,0,1,.36.38.36.36,0,0,1-.36.36.74.74,0,0,1-.74-.74V162h-.19a.37.37,0,0,1-.37-.37.36.36,0,0,1,.37-.36h.19v-1a.37.37,0,0,1,.37-.36.36.36,0,0,1,.37.36v1h.16A.38.38,0,0,1,397.09,161.64Z" style="fill:#263238"></path><path d="M399,160.44a.36.36,0,1,1-.72,0v-.13a.36.36,0,0,1,.72,0Zm0,1.21v2.59a.36.36,0,0,1-.72,0v-2.59a.36.36,0,1,1,.72,0Z" style="fill:#263238"></path><path d="M400.43,164.12A1.66,1.66,0,0,1,400,163a1.7,1.7,0,0,1,.46-1.17,1.55,1.55,0,0,1,1.14-.5,1.47,1.47,0,0,1,1.11.5,1.66,1.66,0,0,1,.47,1.17,1.63,1.63,0,0,1-.47,1.17,1.47,1.47,0,0,1-1.11.5A1.55,1.55,0,0,1,400.43,164.12Zm.26-1.17a1.08,1.08,0,0,0,.24.7.92.92,0,0,0,.64.25.85.85,0,0,0,.61-.25,1.07,1.07,0,0,0,0-1.4.94.94,0,0,0-.61-.25,1,1,0,0,0-.64.25A1.08,1.08,0,0,0,400.69,163Z" style="fill:#263238"></path><path d="M407.06,162.66v1.59a.35.35,0,1,1-.7,0v-1.59a.68.68,0,0,0-.69-.67.66.66,0,0,0-.67.67v1.59a.2.2,0,0,1,0,.07.37.37,0,0,1-.36.28.35.35,0,0,1-.35-.35v-2.62a.35.35,0,0,1,.35-.35.37.37,0,0,1,.33.2,1.38,1.38,0,0,1,2.1,1.18Z" style="fill:#263238"></path><polygon points="371.85 169.85 377.32 169.76 382.79 169.7 393.72 169.66 404.66 169.7 410.12 169.76 415.59 169.85 410.12 169.94 404.66 170 393.72 170.04 382.79 170 377.32 169.94 371.85 169.85" style="fill:#263238"></polygon><path d="M419,169.85c1.72-.08,3.45-.12,5.18-.15s3.46,0,5.19,0,3.46,0,5.19,0,3.46.07,5.19.15c-1.73.08-3.46.12-5.19.15s-3.46,0-5.19,0-3.46,0-5.19,0S420.74,169.93,419,169.85Z" style="fill:#263238"></path><path d="M371.85,175.57c2.57-.08,5.14-.12,7.71-.15l7.7,0,7.71,0c2.57,0,5.14.07,7.71.15-2.57.08-5.14.12-7.71.15l-7.71,0-7.7,0C377,175.69,374.42,175.65,371.85,175.57Z" style="fill:#263238"></path><path d="M408.1,175.57c1.77-.08,3.55-.12,5.32-.15s3.55,0,5.32,0,3.55,0,5.33,0,3.55.07,5.32.15c-1.77.08-3.55.12-5.32.15s-3.55,0-5.33,0-3.55,0-5.32,0S409.87,175.65,408.1,175.57Z" style="fill:#263238"></path><path d="M452.56,154.57a4.65,4.65,0,1,1-4.65-4.65A4.65,4.65,0,0,1,452.56,154.57Z" style="fill:#02479D"></path><rect x="447.37" y="151.84" width="1.09" height="5.46" transform="translate(240.49 -271.45) rotate(45)" style="fill:#fff"></rect><rect x="447.37" y="151.84" width="1.09" height="5.46" transform="translate(873.93 -52.86) rotate(135)" style="fill:#fff"></rect><rect x="365.28" y="387.25" width="82.63" height="27.41" style="fill:#fff"></rect><path d="M447.91,414.67l-82.63.21h-.21v-.21l0-27.42V387h.25l82.63.1h.15v.15L448,401Zm0,0-.15-27.42.15.15-82.63.1.25-.25,0,27.42-.21-.21Z" style="fill:#263238"></path><path d="M375,396.19h-1.62l-.32.87a.38.38,0,0,1-.35.23l-.12,0a.37.37,0,0,1-.22-.48l1.47-3.92a.38.38,0,0,1,.7,0l1.47,3.92a.37.37,0,0,1-.22.48l-.12,0a.36.36,0,0,1-.34-.23Zm-.27-.73-.54-1.43-.54,1.43Z" style="fill:#263238"></path><path d="M379.59,395.35v1.59a.35.35,0,0,1-.7,0v-1.59a.68.68,0,0,0-.69-.68.67.67,0,0,0-.67.68v1.59a.13.13,0,0,1,0,.06.36.36,0,0,1-.35.29.36.36,0,0,1-.36-.35v-2.62a.36.36,0,0,1,.36-.36.35.35,0,0,1,.32.21,1.32,1.32,0,0,1,.71-.21A1.39,1.39,0,0,1,379.59,395.35Z" style="fill:#263238"></path><path d="M383.67,395.35v1.59a.35.35,0,0,1-.7,0v-1.59a.68.68,0,0,0-.69-.68.67.67,0,0,0-.67.68v1.59a.13.13,0,0,1,0,.06.36.36,0,0,1-.35.29.36.36,0,0,1-.36-.35v-2.62a.36.36,0,0,1,.36-.36.35.35,0,0,1,.32.21,1.32,1.32,0,0,1,.71-.21A1.39,1.39,0,0,1,383.67,395.35Z" style="fill:#263238"></path><path d="M385.28,396.8a1.63,1.63,0,0,1-.46-1.17,1.69,1.69,0,0,1,.46-1.16,1.57,1.57,0,0,1,1.14-.51,1.48,1.48,0,0,1,1.11.51,1.66,1.66,0,0,1,.47,1.16,1.6,1.6,0,0,1-.47,1.17,1.44,1.44,0,0,1-1.11.51A1.54,1.54,0,0,1,385.28,396.8Zm.27-1.17a1.05,1.05,0,0,0,.24.71.87.87,0,0,0,.63.24.88.88,0,0,0,.62-.24,1.07,1.07,0,0,0,.26-.71,1,1,0,0,0-.26-.69.93.93,0,0,0-.62-.25.92.92,0,0,0-.63.25A1,1,0,0,0,385.55,395.63Z" style="fill:#263238"></path><path d="M390.5,394.33a.37.37,0,0,1-.37.36H390v1.86a.37.37,0,0,1,.36.37.36.36,0,0,1-.36.37.74.74,0,0,1-.74-.74v-1.86H389a.37.37,0,0,1,0-.73h.2v-1a.36.36,0,0,1,.37-.37.37.37,0,0,1,.37.37v1h.16A.37.37,0,0,1,390.5,394.33Z" style="fill:#263238"></path><path d="M394.28,395.63v1.31a.35.35,0,0,1-.35.35.36.36,0,0,1-.34-.29,1.53,1.53,0,0,1-2-.2,1.67,1.67,0,0,1-.45-1.17,1.66,1.66,0,0,1,.45-1.17,1.56,1.56,0,0,1,1.13-.5,1.63,1.63,0,0,1,.89.29.36.36,0,0,1,.34-.29.36.36,0,0,1,.35.36Zm-.7,0a1,1,0,0,0-.26-.68.84.84,0,0,0-.62-.28.8.8,0,0,0-.62.28,1,1,0,0,0-.25.68,1,1,0,0,0,.25.69.86.86,0,0,0,.62.26.9.9,0,0,0,.62-.26A1,1,0,0,0,393.58,395.63Z" style="fill:#263238"></path><path d="M397.09,394.33a.38.38,0,0,1-.38.36h-.16v1.86a.37.37,0,0,1,.36.37.36.36,0,0,1-.36.37.74.74,0,0,1-.74-.74v-1.86h-.19a.37.37,0,1,1,0-.73h.19v-1a.37.37,0,0,1,.37-.37.36.36,0,0,1,.37.37v1h.16A.38.38,0,0,1,397.09,394.33Z" style="fill:#263238"></path><path d="M399,393.13a.36.36,0,1,1-.72,0V393a.36.36,0,0,1,.72,0Zm0,1.2v2.6a.36.36,0,0,1-.72,0v-2.6a.36.36,0,0,1,.72,0Z" style="fill:#263238"></path><path d="M400.43,396.8a1.63,1.63,0,0,1-.46-1.17,1.69,1.69,0,0,1,.46-1.16,1.56,1.56,0,0,1,1.14-.51,1.48,1.48,0,0,1,1.11.51,1.66,1.66,0,0,1,.47,1.16,1.6,1.6,0,0,1-.47,1.17,1.44,1.44,0,0,1-1.11.51A1.52,1.52,0,0,1,400.43,396.8Zm.26-1.17a1.11,1.11,0,0,0,.24.71.91.91,0,0,0,.64.24.84.84,0,0,0,.61-.24,1,1,0,0,0,.26-.71,1,1,0,0,0-.26-.69.89.89,0,0,0-.61-.25,1,1,0,0,0-.64.25A1.07,1.07,0,0,0,400.69,395.63Z" style="fill:#263238"></path><path d="M407.06,395.35v1.59a.35.35,0,0,1-.7,0v-1.59a.68.68,0,0,0-.69-.68.67.67,0,0,0-.67.68v1.59a.13.13,0,0,1,0,.06.38.38,0,0,1-.36.29.35.35,0,0,1-.35-.35v-2.62a.35.35,0,0,1,.35-.36.36.36,0,0,1,.33.21,1.32,1.32,0,0,1,.71-.21A1.39,1.39,0,0,1,407.06,395.35Z" style="fill:#263238"></path><polygon points="371.85 402.54 377.32 402.44 382.79 402.39 393.72 402.34 404.66 402.39 410.12 402.44 415.59 402.54 410.12 402.63 404.66 402.69 393.72 402.73 382.79 402.69 377.32 402.63 371.85 402.54" style="fill:#263238"></polygon><path d="M419,402.54c1.72-.08,3.45-.12,5.18-.15s3.46,0,5.19-.05,3.46,0,5.19.05,3.46.07,5.19.15c-1.73.08-3.46.11-5.19.15s-3.46,0-5.19,0-3.46,0-5.19,0S420.74,402.62,419,402.54Z" style="fill:#263238"></path><path d="M371.85,408.26c2.57-.08,5.14-.12,7.71-.15l7.7-.05,7.71.05c2.57,0,5.14.07,7.71.15-2.57.08-5.14.11-7.71.14l-7.71.05-7.7-.05C377,408.37,374.42,408.34,371.85,408.26Z" style="fill:#263238"></path><path d="M408.1,408.26c1.77-.08,3.55-.12,5.32-.15s3.55,0,5.32-.05,3.55,0,5.33.05,3.55.07,5.32.15c-1.77.08-3.55.11-5.32.14s-3.55,0-5.33.05-3.55,0-5.32-.05S409.87,408.34,408.1,408.26Z" style="fill:#263238"></path><circle cx="447.91" cy="387.25" r="4.65" style="fill:#02479D"></circle><rect x="447.37" y="384.53" width="1.09" height="5.46" transform="translate(404.98 -203.29) rotate(45)" style="fill:#fff"></rect><rect x="447.37" y="384.53" width="1.09" height="5.46" transform="translate(1038.46 344.36) rotate(135)" style="fill:#fff"></rect><rect x="365.28" y="242.83" width="82.63" height="49.65" style="fill:#fff"></rect><path d="M447.91,292.49l-82.63.18h-.19v-.18L365,242.83v-.25h.25l82.63.1h.15v.15Zm0,0-.15-49.66.15.16-82.63.09.25-.25-.07,49.66-.18-.19Z" style="fill:#263238"></path><path d="M375,251.77h-1.62l-.32.87a.38.38,0,0,1-.35.23l-.12,0a.37.37,0,0,1-.22-.48l1.47-3.92a.38.38,0,0,1,.7,0l1.47,3.92a.37.37,0,0,1-.22.48l-.12,0a.36.36,0,0,1-.34-.23Zm-.27-.73-.54-1.43-.54,1.43Z" style="fill:#263238"></path><path d="M379.59,250.93v1.59a.35.35,0,0,1-.7,0v-1.59a.68.68,0,0,0-.69-.67.66.66,0,0,0-.67.67v1.59a.13.13,0,0,1,0,.06.36.36,0,0,1-.35.29.36.36,0,0,1-.36-.35V249.9a.36.36,0,0,1,.36-.36.35.35,0,0,1,.32.21,1.32,1.32,0,0,1,.71-.21A1.4,1.4,0,0,1,379.59,250.93Z" style="fill:#263238"></path><path d="M383.67,250.93v1.59a.35.35,0,1,1-.7,0v-1.59a.68.68,0,0,0-.69-.67.66.66,0,0,0-.67.67v1.59a.13.13,0,0,1,0,.06.36.36,0,0,1-.35.29.36.36,0,0,1-.36-.35V249.9a.36.36,0,0,1,.36-.36.35.35,0,0,1,.32.21,1.32,1.32,0,0,1,.71-.21A1.4,1.4,0,0,1,383.67,250.93Z" style="fill:#263238"></path><path d="M385.28,252.38a1.63,1.63,0,0,1-.46-1.17,1.69,1.69,0,0,1,.46-1.16,1.57,1.57,0,0,1,1.14-.51,1.48,1.48,0,0,1,1.11.51,1.66,1.66,0,0,1,.47,1.16,1.6,1.6,0,0,1-.47,1.17,1.44,1.44,0,0,1-1.11.51A1.54,1.54,0,0,1,385.28,252.38Zm.27-1.17a1.05,1.05,0,0,0,.24.71.88.88,0,0,0,.63.25.89.89,0,0,0,.62-.25,1.07,1.07,0,0,0,.26-.71,1,1,0,0,0-.26-.69,1,1,0,0,0-.62-.25,1,1,0,0,0-.63.25A1,1,0,0,0,385.55,251.21Z" style="fill:#263238"></path><path d="M390.5,249.91a.38.38,0,0,1-.37.37H390v1.85a.37.37,0,0,1,.36.37.36.36,0,0,1-.36.37.74.74,0,0,1-.74-.74v-1.85H389a.37.37,0,0,1-.36-.37.36.36,0,0,1,.36-.37h.2v-1a.36.36,0,0,1,.37-.37.37.37,0,0,1,.37.37v1h.16A.37.37,0,0,1,390.5,249.91Z" style="fill:#263238"></path><path d="M394.28,251.21v1.31a.35.35,0,0,1-.35.35.36.36,0,0,1-.34-.29,1.53,1.53,0,0,1-2-.2,1.75,1.75,0,0,1,0-2.34,1.5,1.5,0,0,1,2-.2.36.36,0,0,1,.34-.3.36.36,0,0,1,.35.36Zm-.7,0a1,1,0,0,0-.26-.68.83.83,0,0,0-.62-.27.8.8,0,0,0-.62.27,1,1,0,0,0-.25.68,1,1,0,0,0,.25.69.86.86,0,0,0,.62.26.9.9,0,0,0,.62-.26A1,1,0,0,0,393.58,251.21Z" style="fill:#263238"></path><path d="M397.09,249.91a.38.38,0,0,1-.38.37h-.16v1.85a.37.37,0,0,1,.36.37.36.36,0,0,1-.36.37.74.74,0,0,1-.74-.74v-1.85h-.19a.37.37,0,0,1-.37-.37.36.36,0,0,1,.37-.37h.19v-1a.37.37,0,0,1,.37-.37.36.36,0,0,1,.37.37v1h.16A.38.38,0,0,1,397.09,249.91Z" style="fill:#263238"></path><path d="M399,248.71a.36.36,0,1,1-.72,0v-.14a.36.36,0,1,1,.72,0Zm0,1.21v2.59a.36.36,0,0,1-.72,0v-2.59a.36.36,0,1,1,.72,0Z" style="fill:#263238"></path><path d="M400.43,252.38a1.63,1.63,0,0,1-.46-1.17,1.69,1.69,0,0,1,.46-1.16,1.56,1.56,0,0,1,1.14-.51,1.48,1.48,0,0,1,1.11.51,1.66,1.66,0,0,1,.47,1.16,1.6,1.6,0,0,1-.47,1.17,1.44,1.44,0,0,1-1.11.51A1.52,1.52,0,0,1,400.43,252.38Zm.26-1.17a1.11,1.11,0,0,0,.24.71.92.92,0,0,0,.64.25.85.85,0,0,0,.61-.25,1,1,0,0,0,.26-.71,1,1,0,0,0-.26-.69.94.94,0,0,0-.61-.25,1,1,0,0,0-.64.25A1.07,1.07,0,0,0,400.69,251.21Z" style="fill:#263238"></path><path d="M407.06,250.93v1.59a.35.35,0,1,1-.7,0v-1.59a.68.68,0,0,0-.69-.67.66.66,0,0,0-.67.67v1.59a.13.13,0,0,1,0,.06.38.38,0,0,1-.36.29.35.35,0,0,1-.35-.35V249.9a.35.35,0,0,1,.35-.36.36.36,0,0,1,.33.21,1.32,1.32,0,0,1,.71-.21A1.4,1.4,0,0,1,407.06,250.93Z" style="fill:#263238"></path><polygon points="371.85 260.11 377.32 260.01 382.79 259.96 393.72 259.91 404.66 259.96 410.12 260.01 415.59 260.11 410.12 260.2 404.66 260.25 393.72 260.3 382.79 260.25 377.32 260.2 371.85 260.11" style="fill:#263238"></polygon><path d="M419,260.11c1.72-.08,3.45-.12,5.18-.15s3.46,0,5.19,0,3.46,0,5.19,0,3.46.06,5.19.15c-1.73.08-3.46.11-5.19.14s-3.46,0-5.19.05-3.46,0-5.19-.05S420.74,260.18,419,260.11Z" style="fill:#263238"></path><path d="M371.85,265.82c2.57-.08,5.14-.11,7.71-.14l7.7-.05,7.71.05c2.57,0,5.14.06,7.71.14-2.57.08-5.14.12-7.71.15l-7.71,0-7.7,0C377,265.94,374.42,265.9,371.85,265.82Z" style="fill:#263238"></path><path d="M408.1,265.82c1.77-.08,3.55-.11,5.32-.14s3.55,0,5.32-.05,3.55,0,5.33.05,3.55.06,5.32.14c-1.77.08-3.55.12-5.32.15s-3.55,0-5.33,0-3.55,0-5.32,0S409.87,265.9,408.1,265.82Z" style="fill:#263238"></path><polygon points="371.85 271.54 377.07 271.45 382.29 271.4 392.72 271.35 403.15 271.39 408.37 271.45 413.58 271.54 408.37 271.64 403.15 271.69 392.72 271.74 382.29 271.69 377.07 271.64 371.85 271.54" style="fill:#263238"></polygon><path d="M418.3,271.54c1.41-.08,2.81-.11,4.22-.14s2.81,0,4.21,0,2.81,0,4.21,0,2.81.06,4.22.14c-1.41.08-2.81.12-4.22.15s-2.81,0-4.21.05-2.81,0-4.21-.05S419.71,271.62,418.3,271.54Z" style="fill:#263238"></path><path d="M371.85,277.26c1.33-.08,2.65-.11,4-.15s2.65,0,4,0,2.65,0,4,0,2.65.07,4,.15c-1.32.08-2.64.12-4,.15s-2.64,0-4,0-2.64,0-4,0S373.18,277.34,371.85,277.26Z" style="fill:#263238"></path><path d="M392.72,277.26c2.61-.08,5.22-.11,7.83-.15l7.82,0,7.83,0c2.61,0,5.22.07,7.83.15-2.61.08-5.22.12-7.83.15l-7.83,0-7.82,0C397.94,277.38,395.33,277.34,392.72,277.26Z" style="fill:#263238"></path><path d="M371.85,283c2.29-.08,4.58-.12,6.86-.15l6.86,0,6.86,0c2.29,0,4.57.07,6.86.15-2.29.08-4.57.12-6.86.15l-6.86,0-6.86,0C376.43,283.1,374.14,283.06,371.85,283Z" style="fill:#263238"></path><path d="M402.68,283c1.3-.08,2.6-.12,3.9-.15s2.61,0,3.91,0,2.6,0,3.91,0,2.6.07,3.9.15c-1.3.08-2.6.12-3.9.15s-2.61,0-3.91,0-2.6,0-3.91,0S404,283.06,402.68,283Z" style="fill:#263238"></path><path d="M452.56,242.83a4.65,4.65,0,1,1-4.65-4.64A4.65,4.65,0,0,1,452.56,242.83Z" style="fill:#02479D"></path><rect x="447.37" y="240.11" width="1.09" height="5.46" transform="translate(302.9 -245.6) rotate(45)" style="fill:#fff"></rect><rect x="447.37" y="240.11" width="1.09" height="5.46" transform="translate(936.34 97.82) rotate(135)" style="fill:#fff"></rect><rect x="365.28" y="308.75" width="82.63" height="49.65" style="fill:#fff"></rect><path d="M447.91,358.4l-82.63.19h-.19v-.19L365,308.75v-.25h.25l82.63.09h.15v.16Zm0,0-.15-49.65.15.15-82.63.09.25-.24-.07,49.65-.18-.19Z" style="fill:#263238"></path><path d="M375,317.68h-1.62l-.32.87a.38.38,0,0,1-.35.23l-.12,0a.37.37,0,0,1-.22-.48l1.47-3.92a.38.38,0,0,1,.7,0l1.47,3.92a.37.37,0,0,1-.22.48l-.12,0a.36.36,0,0,1-.34-.23Zm-.27-.73-.54-1.43-.54,1.43Z" style="fill:#263238"></path><path d="M379.59,316.84v1.59a.35.35,0,1,1-.7,0v-1.59a.68.68,0,0,0-.69-.67.66.66,0,0,0-.67.67v1.59a.2.2,0,0,1,0,.07.36.36,0,0,1-.71-.07v-2.62a.35.35,0,0,1,.36-.35.34.34,0,0,1,.32.2,1.31,1.31,0,0,1,.71-.2A1.39,1.39,0,0,1,379.59,316.84Z" style="fill:#263238"></path><path d="M383.67,316.84v1.59a.35.35,0,1,1-.7,0v-1.59a.68.68,0,0,0-.69-.67.66.66,0,0,0-.67.67v1.59a.2.2,0,0,1,0,.07.36.36,0,0,1-.71-.07v-2.62a.35.35,0,0,1,.36-.35.34.34,0,0,1,.32.2,1.31,1.31,0,0,1,.71-.2A1.39,1.39,0,0,1,383.67,316.84Z" style="fill:#263238"></path><path d="M385.28,318.3a1.67,1.67,0,0,1-.46-1.18,1.69,1.69,0,0,1,.46-1.16,1.57,1.57,0,0,1,1.14-.5,1.47,1.47,0,0,1,1.11.5,1.66,1.66,0,0,1,.47,1.16,1.64,1.64,0,0,1-.47,1.18,1.47,1.47,0,0,1-1.11.5A1.57,1.57,0,0,1,385.28,318.3Zm.27-1.18a1.05,1.05,0,0,0,.24.71.88.88,0,0,0,.63.25.89.89,0,0,0,.62-.25,1.07,1.07,0,0,0,.26-.71,1,1,0,0,0-.26-.69,1,1,0,0,0-.62-.25,1,1,0,0,0-.63.25A1,1,0,0,0,385.55,317.12Z" style="fill:#263238"></path><path d="M390.5,315.82a.38.38,0,0,1-.37.37H390V318a.37.37,0,0,1,.36.38.36.36,0,0,1-.36.36.74.74,0,0,1-.74-.74v-1.85H389a.37.37,0,0,1-.36-.37.35.35,0,0,1,.36-.36h.2v-1a.36.36,0,0,1,.37-.37.37.37,0,0,1,.37.37v1h.16A.36.36,0,0,1,390.5,315.82Z" style="fill:#263238"></path><path d="M394.28,317.12v1.31a.35.35,0,0,1-.69.07,1.62,1.62,0,0,1-.89.28,1.59,1.59,0,0,1-1.13-.48,1.7,1.7,0,0,1-.45-1.18,1.67,1.67,0,0,1,.45-1.17,1.53,1.53,0,0,1,2-.2.35.35,0,0,1,.34-.29.35.35,0,0,1,.35.35Zm-.7,0a1,1,0,0,0-.26-.68.83.83,0,0,0-.62-.27.8.8,0,0,0-.62.27,1.06,1.06,0,0,0,0,1.37.82.82,0,0,0,.62.26.85.85,0,0,0,.62-.26A1,1,0,0,0,393.58,317.12Z" style="fill:#263238"></path><path d="M397.09,315.82a.38.38,0,0,1-.38.37h-.16V318a.37.37,0,0,1,.36.38.36.36,0,0,1-.36.36.74.74,0,0,1-.74-.74v-1.85h-.19a.37.37,0,0,1-.37-.37.35.35,0,0,1,.37-.36h.19v-1a.37.37,0,0,1,.37-.37.36.36,0,0,1,.37.37v1h.16A.37.37,0,0,1,397.09,315.82Z" style="fill:#263238"></path><path d="M399,314.62a.36.36,0,1,1-.72,0v-.14a.36.36,0,0,1,.72,0Zm0,1.21v2.59a.36.36,0,1,1-.72,0v-2.59a.36.36,0,1,1,.72,0Z" style="fill:#263238"></path><path d="M400.43,318.3a1.67,1.67,0,0,1-.46-1.18,1.69,1.69,0,0,1,.46-1.16,1.55,1.55,0,0,1,1.14-.5,1.47,1.47,0,0,1,1.11.5,1.66,1.66,0,0,1,.47,1.16,1.64,1.64,0,0,1-.47,1.18,1.47,1.47,0,0,1-1.11.5A1.55,1.55,0,0,1,400.43,318.3Zm.26-1.18a1.11,1.11,0,0,0,.24.71.92.92,0,0,0,.64.25.85.85,0,0,0,.61-.25,1,1,0,0,0,.26-.71,1,1,0,0,0-.26-.69.94.94,0,0,0-.61-.25,1,1,0,0,0-.64.25A1.07,1.07,0,0,0,400.69,317.12Z" style="fill:#263238"></path><path d="M407.06,316.84v1.59a.35.35,0,0,1-.7,0v-1.59a.68.68,0,0,0-.69-.67.66.66,0,0,0-.67.67v1.59a.2.2,0,0,1,0,.07.37.37,0,0,1-.36.28.35.35,0,0,1-.35-.35v-2.62a.34.34,0,0,1,.35-.35.35.35,0,0,1,.33.2,1.31,1.31,0,0,1,.71-.2A1.39,1.39,0,0,1,407.06,316.84Z" style="fill:#263238"></path><polygon points="371.85 326.02 377.32 325.92 382.79 325.87 393.72 325.82 404.66 325.87 410.12 325.92 415.59 326.02 410.12 326.11 404.66 326.17 393.72 326.21 382.79 326.16 377.32 326.11 371.85 326.02" style="fill:#263238"></polygon><path d="M419,326c1.72-.08,3.45-.12,5.18-.15s3.46,0,5.19-.05,3.46,0,5.19.05,3.46.07,5.19.15c-1.73.08-3.46.11-5.19.15s-3.46,0-5.19,0-3.46,0-5.19,0S420.74,326.1,419,326Z" style="fill:#263238"></path><path d="M371.85,331.74c2.57-.08,5.14-.12,7.71-.15l7.7,0,7.71,0c2.57,0,5.14.07,7.71.15-2.57.08-5.14.11-7.71.14l-7.71.05-7.7-.05C377,331.85,374.42,331.82,371.85,331.74Z" style="fill:#263238"></path><path d="M408.1,331.74c1.77-.08,3.55-.12,5.32-.15s3.55,0,5.32,0,3.55,0,5.33,0,3.55.07,5.32.15c-1.77.08-3.55.11-5.32.14s-3.55,0-5.33.05-3.55,0-5.32-.05S409.87,331.82,408.1,331.74Z" style="fill:#263238"></path><polygon points="371.85 337.45 377.07 337.36 382.29 337.31 392.72 337.26 403.15 337.31 408.37 337.36 413.58 337.45 408.37 337.55 403.15 337.6 392.72 337.65 382.29 337.6 377.07 337.55 371.85 337.45" style="fill:#263238"></polygon><path d="M418.3,337.45c1.41-.07,2.81-.11,4.22-.14s2.81,0,4.21-.05,2.81,0,4.21.05,2.81.06,4.22.14c-1.41.08-2.81.12-4.22.15s-2.81,0-4.21,0-2.81,0-4.21,0S419.71,337.53,418.3,337.45Z" style="fill:#263238"></path><path d="M371.85,343.17c1.33-.08,2.65-.11,4-.14s2.65,0,4,0,2.65,0,4,0,2.65.06,4,.14c-1.32.08-2.64.12-4,.15s-2.64,0-4,.05-2.64,0-4-.05S373.18,343.25,371.85,343.17Z" style="fill:#263238"></path><path d="M392.72,343.17c2.61-.08,5.22-.11,7.83-.14l7.82,0,7.83,0c2.61,0,5.22.06,7.83.14-2.61.08-5.22.12-7.83.15l-7.83.05-7.82-.05C397.94,343.29,395.33,343.25,392.72,343.17Z" style="fill:#263238"></path><path d="M371.85,348.89c2.29-.08,4.58-.11,6.86-.14l6.86-.05,6.86,0c2.29,0,4.57.07,6.86.15-2.29.08-4.57.12-6.86.15l-6.86,0-6.86,0C376.43,349,374.14,349,371.85,348.89Z" style="fill:#263238"></path><path d="M402.68,348.89c1.3-.08,2.6-.11,3.9-.14s2.61,0,3.91-.05,2.6,0,3.91,0,2.6.07,3.9.15c-1.3.08-2.6.12-3.9.15s-2.61,0-3.91,0-2.6,0-3.91,0S404,349,402.68,348.89Z" style="fill:#263238"></path><circle cx="447.91" cy="308.75" r="4.65" style="fill:#02479D"></circle><rect x="447.37" y="306.02" width="1.09" height="5.46" transform="translate(349.51 -226.29) rotate(45)" style="fill:#fff"></rect><rect x="447.37" y="306.02" width="1.09" height="5.46" transform="translate(982.95 210.34) rotate(135)" style="fill:#fff"></rect><polygon points="273.71 161.43 272.96 161.43 272.96 155.67 360.38 155.67 360.38 156.42 273.71 156.42 273.71 161.43" style="fill:#02479D"></polygon><path d="M274.74,161.36a1.41,1.41,0,1,1-1.41-1.41A1.41,1.41,0,0,1,274.74,161.36Z" style="fill:#02479D"></path><circle cx="360.31" cy="156.04" r="1.41" style="fill:#02479D"></circle><polygon points="237.89 393.62 237.14 393.62 237.14 387.86 360.38 387.86 360.38 388.61 237.89 388.61 237.89 393.62" style="fill:#02479D"></polygon><path d="M238.92,393.55a1.41,1.41,0,1,1-1.41-1.41A1.41,1.41,0,0,1,238.92,393.55Z" style="fill:#02479D"></path><circle cx="360.31" cy="388.23" r="1.41" style="fill:#02479D"></circle><polygon points="283.96 261.69 283.21 261.69 283.21 243.57 360.38 243.57 360.38 244.32 283.96 244.32 283.96 261.69" style="fill:#02479D"></polygon><circle cx="283.58" cy="261.62" r="1.41" style="fill:#02479D"></circle><circle cx="360.31" cy="243.94" r="1.41" style="fill:#02479D"></circle><polygon points="227.97 327.58 227.22 327.58 227.22 309.47 360.38 309.47 360.38 310.22 227.97 310.22 227.97 327.58" style="fill:#02479D"></polygon><path d="M229,327.51a1.41,1.41,0,1,1-1.41-1.41A1.41,1.41,0,0,1,229,327.51Z" style="fill:#02479D"></path><circle cx="360.31" cy="309.84" r="1.41" style="fill:#02479D"></circle></g></svg>