<svg xmlns="http://www.w3.org/2000/svg" xmlns:xlink="http://www.w3.org/1999/xlink" viewBox="0 0 500 500"><defs><clipPath id="freepik--clip-path--inject-208"><path d="M376.83,252.47c-5.48-8.22-18.56-10.65-28.9-14s-16.43-10-13.69-26.46,17-43.2,16.73-48.07-49.28-4.56-53.85-3-5.47,1.21-9.73,6.69A75.83,75.83,0,0,0,281,177l5.28-11.1.39,0a14,14,0,0,1,2.41-4,30.75,30.75,0,0,0,7.45-19.34c.2-10.47-7.25-9.46-8.66-6.24s-9.66,14.3-12.08,17.32-7.45,11.28-7.45,11.28l-5.59,19.38s-1.22,5.78-8.22,27.69S250.58,244,250.58,244s-1.83-.91-6.09,12.17-2.43,29.81,5.17,37.72,17.65,7.61,28.91,3.05A34.61,34.61,0,0,0,295,282.28s11.87-3,20.69-9.73S331.2,258.86,344,259.47s27.38,7.91,32.25,7.6S382.31,260.68,376.83,252.47Z" style="fill:#fff;stroke:#263238;stroke-linecap:round;stroke-linejoin:round"></path></clipPath></defs><g id="freepik--background-simple--inject-208"><path d="M400.86,199.5a372.7,372.7,0,0,0-9.36-38.24c-11.4-36.39-34.09-73.21-73.06-85.59-28.77-9.13-59.82-2.83-84.13,15.78-38.13,29.18-65.88,69-107.6,94.27-34.83,21.11-53.06,55.21-41.35,103.41S136.19,365.41,179,362c35.58-2.87,72.78.2,103.54,17.47,27.49,15.43,76.06,2,116.24-40.15,23.41-24.57,21.14-55.81,13.51-85C407.57,236.24,404.51,217.8,400.86,199.5Z" style="fill:#02479D"></path><path d="M400.86,199.5a372.7,372.7,0,0,0-9.36-38.24c-11.4-36.39-34.09-73.21-73.06-85.59-28.77-9.13-59.82-2.83-84.13,15.78-38.13,29.18-65.88,69-107.6,94.27-34.83,21.11-53.06,55.21-41.35,103.41S136.19,365.41,179,362c35.58-2.87,72.78.2,103.54,17.47,27.49,15.43,76.06,2,116.24-40.15,23.41-24.57,21.14-55.81,13.51-85C407.57,236.24,404.51,217.8,400.86,199.5Z" style="fill:#fff;opacity:0.7000000000000001"></path></g><g id="freepik--Device--inject-208"><rect x="167.08" y="121.5" width="167.9" height="302.59" rx="6.75" style="fill:#263238;stroke:#263238;stroke-miterlimit:10"></rect><path d="M262.64,139.58h-20.9a2.15,2.15,0,0,1-2.15-2.15h0a2.14,2.14,0,0,1,2.15-2.14h20.9a2.14,2.14,0,0,1,2.14,2.14h0A2.14,2.14,0,0,1,262.64,139.58Z" style="fill:#02479D"></path><path d="M324.37,397.05H177.69V139.83h34.77l3.91,3.24a7.56,7.56,0,0,0,4.86,1.76h61.34a7.64,7.64,0,0,0,5-1.9l3.53-3.1h33.24Z" style="fill:#fff;stroke:#263238;stroke-linecap:round;stroke-linejoin:round;stroke-width:0.938618px"></path><polygon points="236.27 158.79 234.27 152.07 184.35 152.07 184.35 158.79 184.35 383.39 184.35 390.12 318.16 390.12 318.16 158.79 236.27 158.79" style="fill:#02479D"></polygon><rect x="189.05" y="170.9" width="124.4" height="211.82" style="fill:#fff"></rect><path d="M255.72,405a3.34,3.34,0,1,0-3.34,3.33A3.35,3.35,0,0,0,255.72,405Z" style="fill:#02479D"></path></g><g id="freepik--Message--inject-208"><ellipse cx="241.91" cy="315.19" rx="40.96" ry="58.28" style="fill:#02479D"></ellipse><ellipse cx="241.91" cy="315.19" rx="40.96" ry="58.28" style="fill:#fff;opacity:0.5"></ellipse><path d="M247.72,250.14s-2.56-4.28-4.91-4.49S212.48,263,208.2,272.14s-8.33,27.48,3,45.13c11.05,17.17,28.37,16.6,37.35,15.74s15-3.78,24.1-11.08,17.45-18.05,18.66-25.35-3.24-11.36-6.08-12.37-19.27-.81-31.24-13S247.72,250.14,247.72,250.14Z" style="fill:#263238;stroke:#263238;stroke-linecap:round;stroke-linejoin:round"></path><path d="M251.35,244.58s-7.26,2.78-11.75,7.69-7.26,12.61-7.47,23.93,3.42,24.13,17.51,29.69,26.7,1.28,30.76-2.57,9-14.73,9-14.73-22.42,6-33.1-6.63S251.35,244.58,251.35,244.58Z" style="fill:#fff;stroke:#263238;stroke-linecap:round;stroke-linejoin:round"></path><path d="M376.83,252.47c-5.48-8.22-18.56-10.65-28.9-14s-16.43-10-13.69-26.46,17-43.2,16.73-48.07-49.28-4.56-53.85-3-5.47,1.21-9.73,6.69A75.83,75.83,0,0,0,281,177l5.28-11.1.39,0a14,14,0,0,1,2.41-4,30.75,30.75,0,0,0,7.45-19.34c.2-10.47-7.25-9.46-8.66-6.24s-9.66,14.3-12.08,17.32-7.45,11.28-7.45,11.28l-5.59,19.38s-1.22,5.78-8.22,27.69S250.58,244,250.58,244s-1.83-.91-6.09,12.17-2.43,29.81,5.17,37.72,17.65,7.61,28.91,3.05A34.61,34.61,0,0,0,295,282.28s11.87-3,20.69-9.73S331.2,258.86,344,259.47s27.38,7.91,32.25,7.6S382.31,260.68,376.83,252.47Z" style="fill:#fff"></path><g style="clip-path:url(#freepik--clip-path--inject-208)"><path d="M298.36,224c-33.85,5.05-44.49,13.13-41.11,24.25a17.19,17.19,0,0,0,3.35,6c0,.21,0,.44.06.68,0,0,.6.36,1.5,1a28.69,28.69,0,0,0,3.83,3.11c2.22,2.11,4.21,4.75,3.8,7.2-.87,5.22-13,14.34-19.13,14.78s-8.26-5.65-9.13.87,12.61,22.6,25.65,20.86,23.91-20,23.91-20-1.74-3,7-12.17c5.74-6,13.95-8.65,20.24-11.11a115.67,115.67,0,0,0,17.31-6.64c15.47-7.58,33.85-2.52,33.85-2.52S332.21,218.89,298.36,224Z" style="fill:#02479D"></path><path d="M298.36,224c-33.85,5.05-44.49,13.13-41.11,24.25a17.19,17.19,0,0,0,3.35,6c0,.21,0,.44.06.68,0,0,.6.36,1.5,1a28.69,28.69,0,0,0,3.83,3.11c2.22,2.11,4.21,4.75,3.8,7.2-.87,5.22-13,14.34-19.13,14.78s-8.26-5.65-9.13.87,12.61,22.6,25.65,20.86,23.91-20,23.91-20-1.74-3,7-12.17c5.74-6,13.95-8.65,20.24-11.11a115.67,115.67,0,0,0,17.31-6.64c15.47-7.58,33.85-2.52,33.85-2.52S332.21,218.89,298.36,224Z" style="fill:#fff;opacity:0.5"></path></g><path d="M376.83,252.47c-5.48-8.22-18.56-10.65-28.9-14s-16.43-10-13.69-26.46,17-43.2,16.73-48.07-49.28-4.56-53.85-3-5.47,1.21-9.73,6.69A75.83,75.83,0,0,0,281,177l5.28-11.1.39,0a14,14,0,0,1,2.41-4,30.75,30.75,0,0,0,7.45-19.34c.2-10.47-7.25-9.46-8.66-6.24s-9.66,14.3-12.08,17.32-7.45,11.28-7.45,11.28l-5.59,19.38s-1.22,5.78-8.22,27.69S250.58,244,250.58,244s-1.83-.91-6.09,12.17-2.43,29.81,5.17,37.72,17.65,7.61,28.91,3.05A34.61,34.61,0,0,0,295,282.28s11.87-3,20.69-9.73S331.2,258.86,344,259.47s27.38,7.91,32.25,7.6S382.31,260.68,376.83,252.47Z" style="fill:none;stroke:#263238;stroke-linecap:round;stroke-linejoin:round"></path><path d="M377,267s.64-2.56-6.62-6-10.25-1.07-10.25.64S375.88,267,377,267Z" style="fill:#fff;stroke:#263238;stroke-linecap:round;stroke-linejoin:round"></path><path d="M308.21,149.83l-18.32,14.1h24.57S314.46,146.61,308.21,149.83Z" style="fill:#fff;stroke:#263238;stroke-linecap:round;stroke-linejoin:round"></path><path d="M285.23,251.53a25.6,25.6,0,0,1,9.48-6.73" style="fill:none;stroke:#263238;stroke-linecap:round;stroke-linejoin:round"></path><path d="M281.9,257a12.28,12.28,0,0,1,1.09-2.33" style="fill:none;stroke:#263238;stroke-linecap:round;stroke-linejoin:round"></path><path d="M274.6,276a26.86,26.86,0,0,1-2.74-2.79" style="fill:none;stroke:#263238;stroke-linecap:round;stroke-linejoin:round"></path><path d="M295,282.28a26.82,26.82,0,0,1-16.3-3.34" style="fill:none;stroke:#263238;stroke-linecap:round;stroke-linejoin:round"></path><path d="M363.5,162.72H271.18c-12.75,0-23.08,9.87-23.08,22v43.5c0,10.58,7.81,19.42,18.23,21.55l-4.87,14.41L284,250.3H363.5c12.74,0,23.08-9.87,23.08-22v-43.5C386.58,172.59,376.24,162.72,363.5,162.72Z" style="fill:#02479D;stroke:#263238;stroke-miterlimit:10;stroke-width:2px"></path><line x1="263.13" y1="192.01" x2="366.91" y2="192.01" style="fill:none;stroke:#263238;stroke-linecap:round;stroke-miterlimit:10;stroke-width:2.06409px"></line><line x1="263.13" y1="202.7" x2="366.91" y2="202.7" style="fill:none;stroke:#263238;stroke-linecap:round;stroke-miterlimit:10;stroke-width:2.06409px"></line><line x1="263.13" y1="213.38" x2="366.91" y2="213.38" style="fill:none;stroke:#263238;stroke-linecap:round;stroke-miterlimit:10;stroke-width:2.06409px"></line><line x1="263.13" y1="224.06" x2="366.91" y2="224.06" style="fill:none;stroke:#263238;stroke-linecap:round;stroke-miterlimit:10;stroke-width:2.06409px"></line><ellipse cx="385.74" cy="188.56" rx="12.87" ry="12.29" style="fill:#263238"></ellipse><path d="M384.74,197.24a5.31,5.31,0,0,1-.55-2.73v-10l-2.26,1.26a1.64,1.64,0,0,1-.8.22,1.49,1.49,0,0,1-1.12-.49,1.61,1.61,0,0,1-.45-1.14,1.38,1.38,0,0,1,.24-.81,3.39,3.39,0,0,1,.82-.71L385,180.6a3.46,3.46,0,0,1,1.66-.63c1.49,0,2.23,1.12,2.23,3.36v11.53c0,2.19-.78,3.28-2.35,3.28A1.92,1.92,0,0,1,384.74,197.24Z" style="fill:#fff"></path><path d="M336.36,156.28s.41,8.05,7.66,11.88,16.51,3,16.71-1.81-5.44-9.87-9.26-16.32-12.29-2.81-15.91,1.62" style="fill:#fff;stroke:#263238;stroke-linecap:round;stroke-linejoin:round"></path><path d="M348.85,162.72c-.61,3.22,1.61,5,3.62,6s6,.41,8.26-2.41c.1-2.36-1.19-4.76-3-7.35C355.21,159.28,349.32,160.2,348.85,162.72Z" style="fill:#fff;stroke:#263238;stroke-linecap:round;stroke-linejoin:round"></path><path d="M321.26,156.28s.4,8.05,7.65,11.88,16.52,3,16.72-1.81-5.44-9.87-9.27-16.32-12.28-2.81-15.91,1.62" style="fill:#fff;stroke:#263238;stroke-linecap:round;stroke-linejoin:round"></path><path d="M333.75,162.72c-.61,3.22,1.61,5,3.62,6s6,.41,8.26-2.41c.09-2.36-1.2-4.76-3-7.35C340.11,159.28,334.22,160.2,333.75,162.72Z" style="fill:#fff;stroke:#263238;stroke-linecap:round;stroke-linejoin:round"></path><path d="M307.21,156.28s.4,8.05,7.65,11.88,16.51,3,16.71-1.81-5.43-9.87-9.26-16.32-12.29-2.81-15.91,1.62" style="fill:#fff;stroke:#263238;stroke-linecap:round;stroke-linejoin:round"></path><path d="M319.69,162.72c-.6,3.22,1.61,5,3.63,6s6,.41,8.25-2.41c.1-2.36-1.19-4.76-3-7.35C326.05,159.28,320.16,160.2,319.69,162.72Z" style="fill:#fff;stroke:#263238;stroke-linecap:round;stroke-linejoin:round"></path><path d="M250.58,244s.56,12.38,7.39,20.71" style="fill:none;stroke:#263238;stroke-linecap:round;stroke-linejoin:round"></path><path d="M230.7,295.67c0,2.52-1.68,4.56-3.75,4.56s-3.75-2-3.75-4.56,1.68-4.56,3.75-4.56S230.7,293.15,230.7,295.67Z" style="fill:#fff"></path><path d="M221.37,301.35c0,2.52-1.68,4.56-3.75,4.56s-3.75-2-3.75-4.56,1.68-4.57,3.75-4.57S221.37,298.83,221.37,301.35Z" style="fill:none;stroke:#263238;stroke-linecap:round;stroke-linejoin:round"></path></g></svg>